<svg width="8" height="8" viewBox="0 0 8 8" fill="none" xmlns="http://www.w3.org/2000/svg">
<g clip-path="url(#clip0_454_391)">
<path d="M6.33333 0.666667H6V0.333333C6 0.244928 5.96488 0.160143 5.90237 0.0976311C5.83986 0.035119 5.75507 0 5.66667 0C5.57826 0 5.49348 0.035119 5.43096 0.0976311C5.36845 0.160143 5.33333 0.244928 5.33333 0.333333V0.666667H2.66667V0.333333C2.66667 0.244928 2.63155 0.160143 2.56904 0.0976311C2.50652 0.035119 2.42174 0 2.33333 0C2.24493 0 2.16014 0.035119 2.09763 0.0976311C2.03512 0.160143 2 0.244928 2 0.333333V0.666667H1.66667C1.2248 0.667196 0.801186 0.842961 0.48874 1.15541C0.176294 1.46785 0.000529286 1.89147 0 2.33333L0 6.33333C0.000529286 6.7752 0.176294 7.19881 0.48874 7.51126C0.801186 7.82371 1.2248 7.99947 1.66667 8H6.33333C6.7752 7.99947 7.19881 7.82371 7.51126 7.51126C7.82371 7.19881 7.99947 6.7752 8 6.33333V2.33333C7.99947 1.89147 7.82371 1.46785 7.51126 1.15541C7.19881 0.842961 6.7752 0.667196 6.33333 0.666667ZM0.666667 2.33333C0.666667 2.06812 0.772024 1.81376 0.95956 1.62623C1.1471 1.43869 1.40145 1.33333 1.66667 1.33333H6.33333C6.59855 1.33333 6.8529 1.43869 7.04044 1.62623C7.22798 1.81376 7.33333 2.06812 7.33333 2.33333V2.66667H0.666667V2.33333ZM6.33333 7.33333H1.66667C1.40145 7.33333 1.1471 7.22798 0.95956 7.04044C0.772024 6.8529 0.666667 6.59855 0.666667 6.33333V3.33333H7.33333V6.33333C7.33333 6.59855 7.22798 6.8529 7.04044 7.04044C6.8529 7.22798 6.59855 7.33333 6.33333 7.33333Z" fill="#696969"/>
<path d="M4 5.5C4.27614 5.5 4.5 5.27614 4.5 5C4.5 4.72386 4.27614 4.5 4 4.5C3.72386 4.5 3.5 4.72386 3.5 5C3.5 5.27614 3.72386 5.5 4 5.5Z" fill="#696969"/>
<path d="M2.33301 5.5C2.60915 5.5 2.83301 5.27614 2.83301 5C2.83301 4.72386 2.60915 4.5 2.33301 4.5C2.05687 4.5 1.83301 4.72386 1.83301 5C1.83301 5.27614 2.05687 5.5 2.33301 5.5Z" fill="#696969"/>
<path d="M5.66699 5.5C5.94313 5.5 6.16699 5.27614 6.16699 5C6.16699 4.72386 5.94313 4.5 5.66699 4.5C5.39085 4.5 5.16699 4.72386 5.16699 5C5.16699 5.27614 5.39085 5.5 5.66699 5.5Z" fill="#696969"/>
</g>
<defs>
<clipPath id="clip0_454_391">
<rect width="8" height="8" fill="white"/>
</clipPath>
</defs>
</svg>
