<svg width="8" height="8" viewBox="0 0 8 8" fill="none" xmlns="http://www.w3.org/2000/svg">
<g clip-path="url(#clip0_454_388)">
<path d="M4 0C3.20888 0 2.43552 0.234596 1.77772 0.674122C1.11992 1.11365 0.607234 1.73836 0.304484 2.46927C0.00173314 3.20017 -0.0774802 4.00444 0.0768607 4.78036C0.231202 5.55629 0.612165 6.26902 1.17157 6.82843C1.73098 7.38784 2.44372 7.7688 3.21964 7.92314C3.99556 8.07748 4.79983 7.99827 5.53074 7.69552C6.26164 7.39277 6.88635 6.88008 7.32588 6.22228C7.76541 5.56449 8 4.79113 8 4C7.99886 2.93949 7.57706 1.92274 6.82716 1.17284C6.07727 0.422943 5.06052 0.00114703 4 0ZM4 7.33333C3.34073 7.33333 2.69626 7.13784 2.1481 6.77157C1.59994 6.40529 1.1727 5.8847 0.920403 5.27561C0.668111 4.66652 0.6021 3.9963 0.730718 3.3497C0.859335 2.7031 1.1768 2.10915 1.64298 1.64298C2.10915 1.1768 2.7031 0.859333 3.3497 0.730716C3.9963 0.602098 4.66653 0.66811 5.27561 0.920402C5.8847 1.17269 6.4053 1.59994 6.77157 2.1481C7.13784 2.69626 7.33334 3.34073 7.33334 4C7.33237 4.88376 6.98086 5.73104 6.35595 6.35595C5.73104 6.98086 4.88376 7.33236 4 7.33333Z" fill="#696969"/>
<path d="M3.99982 2C3.91141 2 3.82663 2.03512 3.76412 2.09763C3.70161 2.16014 3.66649 2.24493 3.66649 2.33333V3.775L2.54282 4.479C2.46767 4.52594 2.41426 4.60082 2.39431 4.68714C2.37437 4.77347 2.38954 4.86419 2.43649 4.93933C2.48343 5.01448 2.5583 5.0679 2.64463 5.08784C2.73096 5.10778 2.82167 5.09261 2.89682 5.04567L4.17682 4.24567C4.22518 4.21537 4.26495 4.17316 4.29233 4.12308C4.3197 4.073 4.33376 4.01673 4.33315 3.95967V2.33333C4.33315 2.24493 4.29803 2.16014 4.23552 2.09763C4.17301 2.03512 4.08823 2 3.99982 2Z" fill="#696969"/>
</g>
<defs>
<clipPath id="clip0_454_388">
<rect width="8" height="8" fill="white"/>
</clipPath>
</defs>
</svg>
